<svg xmlns="http://www.w3.org/2000/svg" width="404.706" height="433.708" viewBox="0 0 404.706 433.708">
  <g id="grafismo" transform="translate(0.353 0.354)">
    <path id="Interseção_1" data-name="Interseção 1" d="M735.547,492,754.5,473.088Zm-12.469,0L754.5,460.645Zm-14.963,0L754.5,445.715Zm-12.469,0L754.5,433.272Zm-14.963,0L754.5,418.341Zm-12.469,0L754.5,405.9Zm-14.963,0L754.5,390.967Zm-12.469,0L754.5,378.525Zm-13.966,0L754.5,364.589Zm-12.469,0L754.5,352.147Zm-14.963,0L754.5,337.216Zm-12.469,0L754.5,324.773Zm-14.963,0L754.5,309.842Zm-12.469,0L754.5,297.4Zm-14.963,0L754.5,282.469Zm-12.469,0L754.5,270.026Zm-13.966,0L754.5,256.09Zm-12.469,0L754.5,243.647Zm-14.962,0L754.5,228.716Zm-12.469,0L754.5,216.274Zm-14.963,0L754.5,201.343Zm-12.469,0L754.5,188.9Zm-14.962,0L754.5,173.969Zm-12.469,0L754.5,161.526Zm-13.966,0L743.029,159.038Zm-12.469,0L730.56,159.038Zm-14.962,0L715.6,159.038Zm-12.469,0L703.127,159.038Zm-14.963,0L688.164,159.038ZM350.5,483.54l325.2-324.5Zm0-14.931L660.732,159.038Zm0-12.443L648.263,159.038Zm0-14.434L692.154,100.808Zm0-12.443L679.685,100.808Zm0-14.931L664.722,100.808Zm0-12.443L652.253,100.808Zm0-14.931L637.29,100.808Zm0-12.443L624.821,100.808Zm0-14.931,259.358-258.8Zm0-12.443L597.388,100.808Zm0-13.936L583.424,100.808Zm0-12.443L570.954,100.808Zm0-14.931L555.991,100.808Zm0-12.443,193.022-192.61Zm0-14.931L528.559,100.808Zm0-12.442L516.09,100.808Zm0-14.931L501.127,100.808Zm0-12.443L488.658,100.808Zm0-13.936L516.589,59Zm0-12.443L504.119,59Zm0-14.931L489.156,59Zm0-12.443L476.687,59Zm0-14.931L461.724,59Zm0-12.443L449.255,59Zm0-14.931L434.292,59Zm0-12.443L421.823,59Zm0-13.935L407.858,59Zm0-12.443L395.388,59Zm0-14.931L380.425,59Zm0-12.443L367.956,59Zm0-14.931L352.993,59Z" transform="translate(-350.5 -59)" fill="none" stroke="#713e3e" stroke-width="1"/>
  </g>
</svg>
