<svg xmlns="http://www.w3.org/2000/svg" width="24" height="24" viewBox="0 0 24 24"><path d="M16.5,0h-9A7.5,7.5,0,0,0,0,7.5v9A7.5,7.5,0,0,0,7.5,24h9A7.5,7.5,0,0,0,24,16.5v-9A7.5,7.5,0,0,0,16.5,0Zm5.25,16.5a5.256,5.256,0,0,1-5.25,5.25h-9A5.256,5.256,0,0,1,2.25,16.5v-9A5.256,5.256,0,0,1,7.5,2.25h9A5.256,5.256,0,0,1,21.75,7.5Z" fill="#2D2D2D"/><g transform="translate(6.619 5.901)"><path d="M15.442,14.94h0V10.992c0-1.931-.416-3.418-2.673-3.418a2.343,2.343,0,0,0-2.111,1.16h-.031v-.98H8.489v7.185h2.229V11.382c0-.937.178-1.843,1.338-1.843,1.143,0,1.16,1.069,1.16,1.9v3.5Z" transform="translate(-4.682 -4.178)" fill="#2D2D2D"/><path d="M.4,7.977H2.627v7.185H.4Z" transform="translate(-0.218 -4.4)" fill="#2D2D2D"/><path d="M1.292,0A1.3,1.3,0,1,0,2.585,1.292,1.293,1.293,0,0,0,1.292,0Z" fill="#2D2D2D"/></g></svg>
