<svg xmlns="http://www.w3.org/2000/svg" width="24" height="23.51" viewBox="0 0 24 23.51"><g transform="translate(8.718 4.546)"><path d="M170.485,99.464h3.059V92.228H175.6s.192-1.168.286-2.444h-2.327V88.119a.716.716,0,0,1,.664-.583h1.667V85H173.62c-3.21,0-3.135,2.437-3.135,2.8v1.991H169v2.435h1.489Zm0,0" transform="translate(-168.996 -85)" fill="#2D2D2D"/></g><path d="M16.5,0h-9A7.425,7.425,0,0,0,0,7.347v8.816A7.425,7.425,0,0,0,7.5,23.51h9A7.425,7.425,0,0,0,24,16.163V7.347A7.425,7.425,0,0,0,16.5,0Zm5.25,16.163a5.2,5.2,0,0,1-5.25,5.143h-9a5.2,5.2,0,0,1-5.25-5.143V7.347A5.2,5.2,0,0,1,7.5,2.2h9a5.2,5.2,0,0,1,5.25,5.143Z" fill="#2D2D2D"/></svg>
