<svg id="iconlogo-pivot" xmlns="http://www.w3.org/2000/svg" width="61.639" height="53.798" viewBox="0 0 61.639 53.798">
  <circle id="Elipse_1" data-name="Elipse 1" cx="6.079" cy="6.079" r="6.079" transform="translate(24.741 20.821)" fill="#d9000d"/>
  <path id="Caminho_1" data-name="Caminho 1" d="M329.054,108.328c-1.694,8.941-9.6,16.022-19.623,17.595-.114.017-.226.038-.34.054-.6.086-1.206.15-1.817.2l-.045.005v5.447a34.522,34.522,0,0,0,19.807-6.754q7.748-5.841,8.835-16.543Z" transform="translate(-274.409 -77.826)" fill="#5d5c5c"/>
  <path id="Caminho_2" data-name="Caminho 2" d="M290.836,125.958l-.018,0c-10.118-1.507-18.124-8.625-19.829-17.627H264.18q1.1,10.7,8.858,16.543a34.608,34.608,0,0,0,19.772,6.75v-5.446Q291.812,126.1,290.836,125.958Z" transform="translate(-264.001 -77.826)" fill="#5d5c5c"/>
  <path id="Caminho_3" data-name="Caminho 3" d="M288.506,74.237a23.948,23.948,0,0,1,4.248-.686V68.1a34.67,34.67,0,0,0-19.772,6.732q-8.917,6.688-9.037,19.757H270.6C270.814,84.842,278.348,76.661,288.506,74.237Z" transform="translate(-263.944 -68.101)" fill="#5d5c5c"/>
  <path id="Caminho_4" data-name="Caminho 4" d="M329.386,94.592h6.662q-.125-13.066-9.013-19.757A34.584,34.584,0,0,0,307.228,68.1v5.447a23.737,23.737,0,0,1,4.591.771C321.831,76.84,329.213,84.951,329.386,94.592Z" transform="translate(-274.409 -68.1)" fill="#5d5c5c"/>
  <path id="Caminho_5" data-name="Caminho 5" d="M331.135,108.129h-2.168a19.393,19.393,0,0,1-5.311,11.485c-.288.295-.593.563-.9.835A19.729,19.729,0,0,0,331.135,108.129Z" transform="translate(-278.164 -77.778)" fill="#a3a3a3"/>
  <path id="Caminho_6" data-name="Caminho 6" d="M283.943,120.587c-.356-.312-.708-.629-1.044-.974a19.392,19.392,0,0,1-5.311-11.485h-2.219A19.769,19.769,0,0,0,283.943,120.587Z" transform="translate(-266.706 -77.778)" fill="#a3a3a3"/>
  <path id="Caminho_7" data-name="Caminho 7" d="M283.644,82.82a19.282,19.282,0,0,0-8.709,15.353h2.328q.106-9.011,5.531-14.562C283.068,83.331,283.357,83.079,283.644,82.82Z" transform="translate(-266.601 -71.659)" fill="#a3a3a3"/>
  <path id="Caminho_8" data-name="Caminho 8" d="M322.92,82.914c.26.237.525.465.774.719q5.438,5.545,5.532,14.562H331.5A19.165,19.165,0,0,0,322.92,82.914Z" transform="translate(-278.203 -71.682)" fill="#a3a3a3"/>
</svg>
