<svg id="logo-pivot" xmlns="http://www.w3.org/2000/svg" width="238.085" height="53.798" viewBox="0 0 238.085 53.798">
  <g id="Grupo_1" data-name="Grupo 1">
    <circle id="Elipse_1" data-name="Elipse 1" cx="6.079" cy="6.079" r="6.079" transform="translate(24.741 20.821)" fill="#d9000d"/>
    <path id="Caminho_1" data-name="Caminho 1" d="M329.054,108.328c-1.694,8.941-9.6,16.022-19.623,17.595-.114.017-.226.038-.34.054-.6.086-1.206.15-1.817.2l-.045.005v5.447a34.522,34.522,0,0,0,19.807-6.754q7.748-5.841,8.835-16.543Z" transform="translate(-274.409 -77.826)" fill="#5d5c5c"/>
    <path id="Caminho_2" data-name="Caminho 2" d="M290.836,125.958l-.018,0c-10.118-1.507-18.124-8.625-19.829-17.627H264.18q1.1,10.7,8.858,16.543a34.608,34.608,0,0,0,19.772,6.75v-5.446Q291.812,126.1,290.836,125.958Z" transform="translate(-264.001 -77.826)" fill="#5d5c5c"/>
    <path id="Caminho_3" data-name="Caminho 3" d="M288.506,74.237a23.948,23.948,0,0,1,4.248-.686V68.1a34.67,34.67,0,0,0-19.772,6.732q-8.917,6.688-9.037,19.757H270.6C270.814,84.842,278.348,76.661,288.506,74.237Z" transform="translate(-263.944 -68.101)" fill="#5d5c5c"/>
    <path id="Caminho_4" data-name="Caminho 4" d="M329.386,94.592h6.662q-.125-13.066-9.013-19.757A34.584,34.584,0,0,0,307.228,68.1v5.447a23.737,23.737,0,0,1,4.591.771C321.831,76.84,329.213,84.951,329.386,94.592Z" transform="translate(-274.409 -68.1)" fill="#5d5c5c"/>
    <path id="Caminho_5" data-name="Caminho 5" d="M331.135,108.129h-2.168a19.393,19.393,0,0,1-5.311,11.485c-.288.295-.593.563-.9.835A19.729,19.729,0,0,0,331.135,108.129Z" transform="translate(-278.164 -77.778)" fill="#a3a3a3"/>
    <path id="Caminho_6" data-name="Caminho 6" d="M283.943,120.587c-.356-.312-.708-.629-1.044-.974a19.392,19.392,0,0,1-5.311-11.485h-2.219A19.769,19.769,0,0,0,283.943,120.587Z" transform="translate(-266.706 -77.778)" fill="#a3a3a3"/>
    <path id="Caminho_7" data-name="Caminho 7" d="M283.644,82.82a19.282,19.282,0,0,0-8.709,15.353h2.328q.106-9.011,5.531-14.562C283.068,83.331,283.357,83.079,283.644,82.82Z" transform="translate(-266.601 -71.659)" fill="#a3a3a3"/>
    <path id="Caminho_8" data-name="Caminho 8" d="M322.92,82.914c.26.237.525.465.774.719q5.438,5.545,5.532,14.562H331.5A19.165,19.165,0,0,0,322.92,82.914Z" transform="translate(-278.203 -71.682)" fill="#a3a3a3"/>
  </g>
  <path id="Caminho_9" data-name="Caminho 9" d="M372.509,115.216H363.1V79.956h15.177q4.149,0,7.1.3a21.8,21.8,0,0,1,4.591.855,18.352,18.352,0,0,1,3.351,1.584,7.725,7.725,0,0,1,2.137,1.817,10.579,10.579,0,0,1,1.353,2.527,7.7,7.7,0,0,1,.469,2.654,8.148,8.148,0,0,1-1.353,4.443,14.812,14.812,0,0,1-3.807,3.922,18.291,18.291,0,0,1-6.2,2.5,39.612,39.612,0,0,1-8.854.882h-4.553Zm0-17.611h2.783q7.361,0,9.992-2.252a6.822,6.822,0,0,0,2.353-5.458,5.3,5.3,0,0,0-1.8-4.395q-2.1-1.675-7.437-1.676h-5.894Z" transform="translate(-287.917 -70.966)" fill="#161615"/>
  <path id="Caminho_10" data-name="Caminho 10" d="M414.007,84.525V79.956h8.9v4.569Zm0,5.217h8.9v25.473h-8.9Z" transform="translate(-300.225 -70.966)" fill="#161615"/>
  <path id="Caminho_11" data-name="Caminho 11" d="M446.535,118.336l-14.6-25.473H441.2l9.966,17.4,4.832-8.24,5.414-9.156h8.7l-15.026,25.473Z" transform="translate(-304.561 -74.087)" fill="#161615"/>
  <path id="Caminho_12" data-name="Caminho 12" d="M506.583,118.82a27.65,27.65,0,0,1-7.108-.926,22.469,22.469,0,0,1-3.1-1.07,19,19,0,0,1-2.669-1.4,13.362,13.362,0,0,1-3.92-4.377,12.018,12.018,0,0,1,0-11.326,13.193,13.193,0,0,1,3.92-4.359,20.684,20.684,0,0,1,5.755-2.49,26.777,26.777,0,0,1,7.121-.908,27.34,27.34,0,0,1,7.134.881,19.274,19.274,0,0,1,5.716,2.517,13.207,13.207,0,0,1,3.922,4.359,12.086,12.086,0,0,1-3.922,15.7Q514.45,118.82,506.583,118.82Zm0-3.832a9.227,9.227,0,0,0,6.425-2.611q2.6-2.412,2.606-7,0-4.573-2.606-6.968a9.227,9.227,0,0,0-6.425-2.611,8.732,8.732,0,0,0-3.428.711,11.355,11.355,0,0,0-3.048,1.9h.025a8.184,8.184,0,0,0-1.9,2.971,11.092,11.092,0,0,0-.683,4,11.257,11.257,0,0,0,.67,4.016,8.262,8.262,0,0,0,1.91,2.989h-.025a11.355,11.355,0,0,0,3.048,1.9A8.731,8.731,0,0,0,506.583,114.988Z" transform="translate(-318.204 -73.869)" fill="#161615"/>
  <path id="Caminho_13" data-name="Caminho 13" d="M569.315,116.192q-2.733.486-4.731.72a29.912,29.912,0,0,1-3.365.234,26.864,26.864,0,0,1-3.693-.243,17.832,17.832,0,0,1-3.2-.729,12.116,12.116,0,0,1-2.58-1.187,6.878,6.878,0,0,1-1.834-1.62,7.542,7.542,0,0,1-1.151-2.482,12.78,12.78,0,0,1-.392-3.346V94.8h-6.122V90.97h6.122V85.033H557.3V90.97h10.3V94.8H557.3v11.56a11.158,11.158,0,0,0,.607,4.556h-.025a9.221,9.221,0,0,0,.848,1.162,2.246,2.246,0,0,0,.823.639,8.818,8.818,0,0,0,1.492.441,7.5,7.5,0,0,0,1.492.153,45.93,45.93,0,0,0,6.78-1.224Z" transform="translate(-331.23 -72.194)" fill="#161615"/>
  <g id="Grupo_2" data-name="Grupo 2" transform="translate(170.034 6.923)">
    <path id="Caminho_14" data-name="Caminho 14" d="M491.311,78.1a2.524,2.524,0,0,1,1.677.664l.557-.723a3.49,3.49,0,0,0-2.233-.814,2.942,2.942,0,1,0-.058,5.878,3.94,3.94,0,0,0,2.258-.755V80.212h-1.967v.811h1.112v.808a2.708,2.708,0,0,1-1.336.4,2.064,2.064,0,1,1-.008-4.126Z" transform="translate(-488.197 -77.231)" fill="#161615"/>
    <path id="Caminho_15" data-name="Caminho 15" d="M503.927,79.248c0-1.262-.855-1.984-2.341-1.984h-2.357v5.811h.979V81.324h1.378c.092,0,.183,0,.266-.008l1.062,1.76h1.113l-1.3-1.943A1.866,1.866,0,0,0,503.927,79.248Zm-2.341,1.2h-1.378v-2.3h1.378c.9,0,1.411.365,1.411,1.129C503,80.062,502.482,80.444,501.585,80.444Z" transform="translate(-490.864 -77.239)" fill="#161615"/>
    <path id="Caminho_16" data-name="Caminho 16" d="M513.26,80.668a1.431,1.431,0,0,1-1.536,1.569,1.449,1.449,0,0,1-1.56-1.569v-3.4h-.98v3.4a2.53,2.53,0,0,0,5.057,0v-3.4h-.98Z" transform="translate(-493.271 -77.239)" fill="#161615"/>
    <path id="Caminho_17" data-name="Caminho 17" d="M522.213,77.264H519.9v5.811h.979V81.324h1.338c1.46,0,2.3-.764,2.3-2.075C524.513,77.986,523.674,77.264,522.213,77.264Zm-.042,3.18h-1.3v-2.3h1.3c.9,0,1.4.365,1.4,1.129C523.574,80.062,523.069,80.444,522.172,80.444Z" transform="translate(-495.861 -77.239)" fill="#161615"/>
    <path id="Caminho_18" data-name="Caminho 18" d="M531.9,77.231a2.942,2.942,0,1,0,3.081,2.931A2.956,2.956,0,0,0,531.9,77.231Zm.008,5a2.059,2.059,0,1,1,0-4.117,2.059,2.059,0,1,1,0,4.117Z" transform="translate(-498.019 -77.231)" fill="#161615"/>
  </g>
</svg>
